{"title":"Despicable Me 2 (2013) 720p Hindi DTS 5.1Ch Org By - RAJPUT (Tea","uid":9094241,"size":2608110291,"categoryP":"video","categoryS":"hd___movies","magnet":"?xt=urn:btih:1e18ef4435f5cc56ad025c83eb741c03dd0ec495&amp;dn=Despicable+Me+2+%282013%29+720p+Hindi+DTS+5.1Ch+Org+By+-+RAJPUT+%28Tea&amp;tr=udp%3A%2F%2Ftracker.openbittorrent.com%3A80&amp;tr=udp%3A%2F%2Fopen.demonii.com%3A1337&amp;tr=udp%3A%2F%2Ftracker.coppersurfer.tk%3A6969&amp;tr=udp%3A%2F%2Fexodus.desync.com%3A6969","seeders":2,"leechers":0,"uploader":"hirenraj","files":8,"time":1382649088,"description":"Original Blu Ray DTS 5.1CH Hindi Audio\nDespicable Me 2 (2013) 720p Hindi DTS 5.1Ch Org By - RAJPUT (Team-Gpsoft)\n\nFormat                                   : Matroska\nFormat version                           : Version 4 / Version 2\nFile size                                : 2.40 GiB\nDuration                                 : 1h 38mn\nOverall bit rate                         : 3 506 Kbps\n\nVideo\nID                                       : 1\nFormat                                   : AVC\nFormat/Info                              : Advanced Video Codec\nFormat profile                           : &lt;a class=&quot;__cf_email__&quot; href=&quot;/cdn-cgi/l/email-protection&quot; data-cfemail=&quot;f5bd9c929db5b9c1dbc4&quot;&gt;[email&amp;#160;protected]&lt;/a&gt;&lt;script cf-hash='f9e31' type=&quot;text/javascript&quot;&gt;\n/* &lt;![CDATA[ */!function(){try{var t=&quot;currentScript&quot;in document?document.currentScript:function(){for(var t=document.getElementsByTagName(&quot;script&quot;),e=t.length;e--;)if(t[e].getAttribute(&quot;cf-hash&quot;))return t[e]}();if(t&amp;&amp;t.previousSibling){var e,r,n,i,c=t.previousSibling,a=c.getAttribute(&quot;data-cfemail&quot;);if(a){for(e=&quot;&quot;,r=parseInt(a.substr(0,2),16),n=2;a.length-n;n+=2)i=parseInt(a.substr(n,2),16)^r,e+=String.fromCharCode(i);e=document.createTextNode(e),c.parentNode.replaceChild(e,c)}}}catch(u){}}();/* ]]&gt; */&lt;/script&gt;\nFormat settings, CABAC                   : Yes\nFormat settings, ReFrames                : 4 frames\nCodec ID                                 : V_MPEG4/ISO/AVC\nDuration                                 : 1h 38mn\nBit rate                                 : 2 750 Kbps\nWidth                                    : 1 280 pixels\nHeight                                   : 688 pixels\nDisplay aspect ratio                     : 1.85:1\nFrame rate mode                          : Constant\nFrame rate                               : 23.976 fps\nColor space                              : YUV\nChroma subsampling                       : 4:2:0\nBit depth                                : 8 bits\nScan type                                : Progressive\nBits/(Pixel*Frame)                       : 0.130\nStream size                              : 1.83 GiB (76%)\nTitle                                    : Despicable Me 2 (2013) 720p Hindi DTS 5.1Ch Org By - RAJPUT (Team-Gpsoft)\nLanguage                                 : English\nDefault                                  : Yes\nForced                                   : No\n\nAudio\nID                                       : 2\nFormat                                   : DTS\nFormat/Info                              : Digital Theater Systems\nMode                                     : 16\nFormat settings, Endianness              : Big\nCodec ID                                 : A_DTS\nDuration                                 : 1h 38mn\nBit rate mode                            : Constant\nBit rate                                 : 768 Kbps\nChannel count                            : 6 channels\nChannel positions                        : Front: L C R, Side: L R, LFE\nSampling rate                            : 48.0 KHz\nBit depth                                : 24 bits\nCompression mode                         : Lossy\nStream size                              : 539 MiB (22%)\nTitle                                    : DTS 5.1CH ORG BY - RAJPUT\nLanguage                                 : Hindi\nDefault                                  : Yes\nForced                                   : No\n\nText #1\nID                                       : 3\nFormat                                   : PGS\nMuxing mode                              : zlib\nCodec ID                                 : S_HDMV/PGS\nCodec ID/Info                            : The same subtitle format used on BDs/HD-DVDs\nTitle                                    : Subtitle\nLanguage                                 : Hindi\nDefault                                  : Yes\nForced                                   : No\n\nText #2\nID                                       : 4\nFormat                                   : PGS\nMuxing mode                              : zlib\nCodec ID                                 : S_HDMV/PGS\nCodec ID/Info                            : The same subtitle format used on BDs/HD-DVDs\nTitle                                    : Subtitle\nLanguage                                 : Hindi\nDefault                                  : No\nForced                                   : No\n\nText #3\nID                                       : 5\nFormat                                   : PGS\nMuxing mode                              : zlib\nCodec ID                                 : S_HDMV/PGS\nCodec ID/Info                            : The same subtitle format used on BDs/HD-DVDs\nTitle                                    : Subtitle\nLanguage                                 : English\nDefault                                  : No\nForced                                   : No\n\n","torrent":{"xt":"urn:btih:1e18ef4435f5cc56ad025c83eb741c03dd0ec495","amp;dn":"Despicable+Me+2+%282013%29+720p+Hindi+DTS+5.1Ch+Org+By+-+RAJPUT+%28Tea","amp;tr":["udp%3A%2F%2Ftracker.openbittorrent.com%3A80","udp%3A%2F%2Fopen.demonii.com%3A1337","udp%3A%2F%2Ftracker.coppersurfer.tk%3A6969","udp%3A%2F%2Fexodus.desync.com%3A6969"],"infoHash":"1e18ef4435f5cc56ad025c83eb741c03dd0ec495","infoHashBuffer":{"type":"Buffer","data":[30,24,239,68,53,245,204,86,173,2,92,131,235,116,28,3,221,14,196,149]},"announce":[],"urlList":[]}}